<?xml version="1.0" standalone="no"?>
<!DOCTYPE svg PUBLIC "-//W3C//DTD SVG 1.1//EN" "http://www.w3.org/Graphics/SVG/1.1/DTD/svg11.dtd" >
<svg xmlns="http://www.w3.org/2000/svg" xmlns:xlink="http://www.w3.org/1999/xlink" version="1.1" viewBox="-10 0 1044 1024" color="#f4bf75">
   <path fill="currentColor"
d="M742 779v0zM0 0v1024h1024v-1024h-160h-352h-352h-160zM534 876c-7 15 -18 28 -32 38c-13 10 -28 18 -45 23c-25 5 -50 7 -73 3c-24 -2 -45 -9 -64 -20c-12 -8 -23 -18 -32 -28c-9 -12 -17 -24 -24 -37l78 -48c5 8 10 17 17 27c7 9 15 16 24 19c8 3 19 4 34 3
s25 -8 32 -23c5 -7 7 -22 7 -44c-1 -22 -1 -46 -1 -72v-248h96v29c1 19 1 43 1 70v87c0 30 0 56 -1 78c1 27 1 52 0 76s-6 46 -17 67zM932 849c-8 29 -24 50 -48 65c-25 15 -52 24 -82 28c-31 2 -61 0 -91 -9c-29 -9 -53 -23 -72 -42c-8 -9 -15 -16 -20 -23
c-5 -6 -10 -14 -15 -24l78 -45c10 16 20 29 32 37c10 10 25 16 42 20c24 3 45 0 64 -10c19 -8 25 -26 20 -51c-5 -20 -25 -35 -60 -45c-34 -11 -65 -27 -94 -49c-29 -20 -47 -50 -52 -89c-6 -40 3 -74 27 -102c9 -10 19 -19 32 -26s26 -13 41 -17c5 -1 10 -1 16 -2
c4 -1 9 -1 14 -1c29 -1 54 3 72 10c20 7 36 18 49 33c3 4 7 8 11 13c3 5 8 11 14 20l-75 49c-5 -11 -11 -19 -19 -25c-7 -7 -15 -11 -23 -14c-13 -4 -26 -4 -39 0c-14 5 -23 14 -26 28c-1 4 -2 8 -2 12c1 5 2 11 4 18c5 12 16 21 30 28c16 6 31 13 47 20c45 19 76 38 95 58
c18 20 29 42 33 65c3 20 4 36 1 49s-4 20 -4 21z" />
</svg>
