<?xml version="1.0" standalone="no"?>
<!DOCTYPE svg PUBLIC "-//W3C//DTD SVG 1.1//EN" "http://www.w3.org/Graphics/SVG/1.1/DTD/svg11.dtd" >
<svg xmlns="http://www.w3.org/2000/svg" xmlns:xlink="http://www.w3.org/1999/xlink" version="1.1" viewBox="-10 0 1044 1024" color="#9dc0ce">
   <path fill="currentColor"
d="M909 0h-794c-31 0 -57 11 -80 32s-34 49 -35 83v794c1 34 12 62 35 83s49 32 80 32h794c39 -1 68 -13 87 -38c18 -24 27 -50 28 -77v-794c-1 -27 -10 -53 -28 -77c-19 -25 -48 -37 -87 -38zM341 617h-98v312h-78v-312h-98v-78h274v78zM569 915c-31 14 -70 17 -115 9
c-46 -8 -78 -33 -97 -75l63 -36c15 29 39 45 70 47c31 1 51 -8 59 -27c7 -19 1 -34 -18 -45c-19 -10 -43 -22 -72 -35c-13 -7 -28 -16 -44 -28s-27 -31 -33 -56c-5 -19 -4 -41 4 -66c6 -25 25 -43 55 -56v0c41 -15 77 -16 107 -2c29 14 49 32 58 55l-61 39
c-4 -8 -11 -15 -19 -23c-10 -6 -19 -10 -30 -11c-10 0 -19 3 -27 8s-12 15 -12 28c1 20 12 33 35 39c22 7 48 20 79 40c23 14 37 28 45 40c6 14 11 30 13 50c1 15 -1 33 -7 54c-7 21 -24 38 -53 51v0zM874 929l-75 -135l-76 135h-77l109 -200l-102 -191h79l67 125l67 -125
h77l-101 191l109 200h-77v0z" />
</svg>
