<?xml version="1.0" standalone="no"?>
<!DOCTYPE svg PUBLIC "-//W3C//DTD SVG 1.1//EN" "http://www.w3.org/Graphics/SVG/1.1/DTD/svg11.dtd" >
<svg xmlns="http://www.w3.org/2000/svg" xmlns:xlink="http://www.w3.org/1999/xlink" version="1.1" viewBox="-10 0 1044 1024" color="#6a9fb5">
  <path fill="currentColor" d="M909 0h-794c-31 0 -57 11 -80 32s-34 49 -35 83v794c1 34 12 62 35 83s49 32 80 32h794c39 -1 68 -13 87 -38c18 -24 27 -50 28 -77v-794c-1 -27 -10 -53 -28 -77c-19 -25 -48 -37 -87 -38zM312 831c-4 29 -15 53 -34 71s-45 28 -80 29c-26 1 -50 -5 -71 -17
c-21 -11 -39 -30 -52 -55l65 -40l10 17c8 10 16 17 25 20c5 2 11 3 20 3s16 -2 23 -7c6 -4 10 -10 12 -17l3 -11v-283h79v290v0zM569 915c-31 14 -70 17 -115 9c-46 -8 -78 -33 -97 -75l63 -37c15 30 39 46 70 48c31 1 51 -8 59 -27c7 -19 1 -34 -18 -45
c-19 -10 -43 -22 -72 -35c-13 -7 -28 -16 -44 -28s-27 -31 -33 -56c-5 -19 -4 -41 4 -66c6 -25 25 -43 55 -56v0c41 -15 77 -16 107 -2c29 14 49 32 58 55l-61 39c-4 -8 -11 -15 -19 -23c-10 -6 -19 -10 -30 -11c-10 -1 -19 2 -27 7c-8 6 -12 16 -12 29c1 20 12 33 35 39
c22 7 48 20 79 40c23 14 37 28 45 40c6 14 11 30 13 50c1 15 -1 33 -7 54c-7 21 -24 38 -53 51v0zM874 929l-75 -135l-76 135h-77l109 -201l-102 -190h79l67 125l67 -125h77l-101 190l109 201h-77v0z"/>
</svg>
