<?xml version="1.0" standalone="no"?>
<!DOCTYPE svg PUBLIC "-//W3C//DTD SVG 1.1//EN" "http://www.w3.org/Graphics/SVG/1.1/DTD/svg11.dtd" >
<svg xmlns="http://www.w3.org/2000/svg" xmlns:xlink="http://www.w3.org/1999/xlink" version="1.1" viewBox="-10 0 1044 1024" color="#6a9fb5">
   <path fill="currentColor"
d="M0 0v1024h1024v-1024h-1024zM589 444h-146v452h-80v-452h-145v-74h371v74zM887 850c-12 15 -29 28 -51 37s-46 15 -72 17c-25 1 -51 -1 -78 -6c-26 -5 -49 -15 -69 -28v-100c22 25 44 40 66 47s42 11 60 12c56 5 87 -10 93 -43c7 -33 -1 -60 -23 -79
c-17 -13 -37 -26 -60 -38c-23 -11 -44 -24 -65 -39c-20 -14 -37 -31 -51 -50c-14 -20 -21 -44 -20 -73c0 -42 15 -76 44 -102s68 -40 116 -42c19 -1 39 -1 63 1c22 3 42 9 58 20v94c-19 -18 -42 -30 -68 -36c-27 -7 -51 -8 -74 -4c-22 5 -39 15 -52 30c-12 16 -13 37 -3 63
c17 32 50 56 97 72s84 50 109 101c11 29 14 55 9 80s-14 47 -29 66v0z" />
</svg>
