<svg xmlns="http://www.w3.org/2000/svg" width="16" height="16"><g fill="none" fill-rule="evenodd" stroke-linecap="round" stroke-linejoin="round"><path stroke="#757981" d="M8.6 8.6a6 6 0 0 0-1.36-.45L5.44 3.2l-1.8 4.95c-1 .17-2.24.87-3.14 1.34l2.84-8a2 2 0 0 1 .27-.66q.15-.18.36-.27C4.13.5 4.31.5 4.69.5h1.7c.38 0 .57 0 .73.06q.21.09.35.27c.11.13.17.3.28.67l1.98 6"/><path stroke="#A761FF" d="M6.56 11.14q-.45.1-1 .1c-1.1 0-2.01-.33-2.26-.78-.08.26-.1.55-.1.74 0 0-.06.94.6 1.58 0-.33.27-.6.61-.6.59 0 .58.5.58.9v.04c0 .62.39 1.16.93 1.38a1 1 0 0 1-.13-.55c0-.59.36-.81.76-1.07"/><path stroke="#575758" d="M11.5 13.5a1 1 0 1 0 0-2 1 1 0 0 0 0 2m1.75-4 1.75 3-1.75 3h-3.5L8 12.5l1.75-3z"/></g></svg>