<svg xmlns="http://www.w3.org/2000/svg" width="16" height="16"><g fill="none" fill-rule="evenodd"><path stroke="#66B2FF" stroke-linecap="round" d="M10.8 3.5q.19-.42.45-.75 1-1.25 3.25-1.25-.75 3.25-1.5 4t-2.5 1q-.05-.68-.05-1"/><circle cx="5.5" cy="4.5" r="1" stroke="#F9C509"/><path stroke="#F9C509" stroke-linecap="round" stroke-linejoin="round" d="M8.5 10q1 .25 1.5-.25Q11 10 11.5 9q1.25-.25 1-1.5"/><path stroke="#FB9D42" stroke-linecap="square" stroke-linejoin="round" d="M14.75 10q0 1-1.75 1-.5.5-1 .5t-1-.5q-.5.5-1 .75t-1.25-.25l.75 2q.25.75-.5 1c-.43.14-.75-.25-1.25-.25s-.56.65-.75.75q-1 .5-1.5-.5L5 13q-.5.5-1.25.5c-.55 0-2.03-1.2-2.79-3.5A10 10 0 0 1 .5 7C.5 2.75 4 1.5 6 1.5q2 0 3.5 2l2.5 1-3.5 2 7 1.5q.25 1.5-.75 2Z"/><path stroke="#32C06D" stroke-linecap="round" stroke-linejoin="round" d="m8.5 6.5 7 1.5q.25 1.5-.75 2 0 1-1.75 1-.5.5-1 .5t-1-.5q-.5.5-1 .75t-1.25-.25"/><path stroke="#F9C509" stroke-linecap="round" stroke-linejoin="round" d="m8.75 11.5.75 2q.25.75-.5 1c-.43.14-.75-.25-1.25-.25s-.56.65-.75.75q-1 .5-1.5-.5L5 13q-.5.5-1.25.5c-.55 0-2.03-1.2-2.79-3.5"/><path stroke="#FB9D42" stroke-linecap="round" stroke-linejoin="round" d="M.96 10A10 10 0 0 1 .5 7C.5 2.75 4 1.5 6 1.5q2 0 3.5 2l2.5 1-3.5 2M1 10q2 .5 3-.5 3.5.5 4.5-3"/></g></svg>