<svg xmlns="http://www.w3.org/2000/svg" width="16" height="16"><path fill="none" fill-rule="evenodd" stroke="#66B2FF" stroke-linecap="round" stroke-linejoin="round" d="m14.36 9.2-1.52 1.5c-.08.09-.14.16-.27.03-1.5-1.52-6.4-6.4-7.32-7.31-.09-.1-.08-.15 0-.24l1.62-1.6q.13-.14.25 0L9.64 4.1c.07.07.13.16.25.17l2.68-2.69q.13-.16.27 0l1.56 1.54c.14.13.13.2 0 .33l-2.52 2.5c-.17.17-.15.25.01.4l2.47 2.47c.16.15.15.23 0 .37M3.44 5.28q-.15-.17-.29 0-.76.78-1.53 1.53c-.15.14-.13.22 0 .35L4.1 9.64c.17.16.16.25 0 .41l-2.5 2.49c-.12.12-.15.2 0 .33q.77.76 1.52 1.54c.12.12.19.12.3 0 .58-.59 2.4-2.4 2.75-2.7l2.7 2.7q.14.15.26 0l1.6-1.6q.15-.12 0-.23z"/></svg>