<svg xmlns="http://www.w3.org/2000/svg" width="16" height="16"><path fill="none" fill-rule="evenodd" stroke="#EE8FF0" stroke-linecap="round" stroke-linejoin="round" d="M3.86 6.46q.35.1.66.28a2 2 0 0 1 .66.6q.17.24.15.53a.8.8 0 0 1-.29.53c-.2.16-.5.14-.74.15q-.46 0-.88-.1a4 4 0 0 1-.62-.21 4 4 0 0 1-.64-.32c-.18-.12-.38-.25-.5-.45a1 1 0 0 1-.11-.5.8.8 0 0 1 .26-.48c.17-.16.43-.2.66-.23q.34-.03.67.04.37.05.72.16m4.05 1.7q.35.07.7.17c.24.08.5.15.72.3.17.13.38.27.45.48.05.15.02.65-.05.8a1 1 0 0 1-.37.39 1.4 1.4 0 0 1-.6.2c-.18.03-.37-.03-.56-.05q-.38-.05-.73-.13c-.27-.07-.56-.13-.8-.28q-.26-.15-.43-.4a1 1 0 0 1-.11-.33 3 3 0 0 1 0-.74q.05-.16.19-.27.16-.16.37-.21c.19-.06.39-.03.58-.02q.33.04.64.1M3.59 6.04s.3-.61.52-.85q.3-.29.67-.47a4 4 0 0 1 2.5-.5 4 4 0 0 1 2 .7q.37.28.67.64a5 5 0 0 1 1.04 2.02q.13.51.1 1.06-.04.5-.2.97-.14.45-.36.89-.17.3-.39.6a7 7 0 0 1-2.29 2.17q-.76.44-1.58.73c-.53.2-1.06.4-1.62.47q-.6.09-1.2-.02a3 3 0 0 1-.98-.43 3 3 0 0 1-.8-1.08 3 3 0 0 1-.17-1.04q0-.24.02-.47.02-.3.07-.6.08-.35.2-.66l.31-.83c.13-.3.44-.85.44-.85m2.49-4q-.04-.28-.06-.56 0-.34.07-.66.06-.2.16-.37.12-.23.28-.42.19-.21.42-.38.17-.16.37-.27.21-.11.47-.2.27-.08.55-.11.2-.02.39.01a1 1 0 0 1 .62.41q.14.18.2.4.02.14 0 .3-.03.29-.13.57-.06.16-.16.31-.2.32-.4.62m3.07 2.45s.33-.5.55-.67q.3-.26.68-.37.56-.14 1.1-.01a1.7 1.7 0 0 1 1.2 1.22 2 2 0 0 1-.11 1.42c-.19.33-.5.57-.79.8q-.38.32-.83.52a3 3 0 0 1-.77.2c-.23.04-.71.02-.71.02"/></svg>