<svg xmlns="http://www.w3.org/2000/svg" width="16" height="16"><g fill="none" fill-rule="evenodd" stroke-linecap="round" stroke-linejoin="round"><path stroke="#757981" d="m1.87 8 .7-2.74a1 1 0 0 1 .96-.76h10.94a1 1 0 0 1 .97 1.24L15.12 7M6.5 13.5H2A1.5 1.5 0 0 1 .5 12V3.5a1 1 0 0 1 1-1h5a1 1 0 0 1 1 1v1"/><g stroke="#A761FF"><path d="M10.5 14a1.5 1.5 0 1 1-3 0 1.5 1.5 0 0 1 3 0M11.97 8.53a1.56 1.56 0 0 0-.84 2.98c1.18.48 1.45.95 1.3 2.23-.1.8.43 1.56 1.22 1.73s1.57-.32 1.8-1.1c.21-.78-.2-1.6-.96-1.89-1.18-.47-1.46-.94-1.31-2.22.1-.8-.42-1.56-1.21-1.73"/><path d="M10.5 14a1.5 1.5 0 1 1-3 0 1.5 1.5 0 0 1 3 0"/></g></g></svg>