<svg xmlns="http://www.w3.org/2000/svg" width="16" height="16"><g fill="none" fill-rule="evenodd" stroke-linejoin="round"><path stroke="#F9C509" stroke-linecap="square" d="M2 9c0 1 .5.75.5 1.75q-.5.75-1.5.75l-.25.5c.5.75 1.25 1 2.25 1q1 0 1.5-.5 2 1 2 3c3.25 0 5.5-2.75 5.5-6.5q3-1 3.5-4.5a6.9 6.9 0 0 0-5 1.5c-1.25-1.5-2.25-1.75-4-1.5-.25-1.25-1.25-2-2-2.5q0-.5-.75-1.5A7 7 0 0 0 2.5 4q0 1.5 1 3.5Q2 8 2 9Z"/><path stroke="#757981" stroke-linecap="round" d="M1 12a.5.5 0 1 0 0-1 .5.5 0 0 0 0 1m7-1.75q-.75 0-1.5.25l2-1a3 3 0 0 0-.5.75"/><path stroke="#757981" d="M4.5 8v2"/></g></svg>