<svg xmlns="http://www.w3.org/2000/svg" width="16" height="16"><g fill="none" fill-rule="evenodd" stroke="#FB9D42" stroke-linecap="round" stroke-linejoin="round"><path d="M8 6.15a1.73 1.73 0 0 0-2.48-.22c-.97.82-1.78 2.5-3.31 2.5-.39-.05-.71-.3-.83-.66a1 1 0 0 1 .24-1.02C.45 6.75.1 8.67 1.03 9.56a4.8 4.8 0 0 0 4.7.56Q7.1 9.57 8 8.45zM8 6.15a1.73 1.73 0 0 1 2.48-.22c.96.82 1.78 2.5 3.3 2.5.4-.05.71-.3.84-.66a1 1 0 0 0-.24-1.02c1.17 0 1.52 1.92.58 2.81a4.8 4.8 0 0 1-4.7.56A5.3 5.3 0 0 1 8 8.45z"/></g></svg>