<svg xmlns="http://www.w3.org/2000/svg" width="16" height="16"><g fill="none" fill-rule="evenodd"><path stroke="#575758" stroke-linecap="round" stroke-linejoin="round" d="M12.5 11.5q2-1.5 2-5.5c0-2-1-5.5-5.5-5.5C5.5.5 4.25 1.75 3.5 3q-2 1-1.25 3.25a5 5 0 0 0 0 2.25Q2.5 9.5 4 9.75L4.5 12M7.25.75Q6 1 5 3a5.6 5.6 0 0 0-.5 4q-.75-2-2-1"/><path stroke="#757981" stroke-linecap="round" d="M11.5 9.5h-2q-1.25 0-2-1m4.5-2a.5.5 0 1 0 0-1 .5.5 0 0 0 0 1Zm-4 0a.5.5 0 1 0 0-1 .5.5 0 0 0 0 1Z"/><path stroke="#42A0FF" stroke-linecap="round" stroke-linejoin="round" d="M14 15.5h.5l.75-2-2.75-2m-7.5.25L1 14l.5 1.5H6"/><path stroke="#F95148" stroke-linejoin="round" d="m10 14 2.5-1.5v3l-5-3v3z"/></g></svg>