<svg xmlns="http://www.w3.org/2000/svg" width="16" height="16"><path fill="none" fill-rule="evenodd" stroke="#F95148" stroke-linecap="square" stroke-linejoin="round" d="m11.5 15.5.5-3.47C10.5 16 8.34 15.28 7.52 15.5c-.23.06 1.67-.48 2.48-2q-1.35.5-1.98.5 2.12-1.85 1.5-3.5c-.34 2.33-4.61 4.11-5.53 2.06q-.9-2.06.97-2.57 0 1.59 1.54 1.59V10.5l1.97.91Q8 6.5 2 7.5.5 5.78.5 5c0-.78.25-1 1-1s1-.02 2.03-1.05C5.09 1.46 7.1 1.1 9.5 2.57Q9.18 1.62 10.56.5q2.22 1.1 1.94 3t-2.5 2q.73.55 2 0a2.4 2.4 0 0 0 1.48-2q2.02 2.5 2.02 5t-1.04 4.06l-.5-2.06c-.98 3.5-1.56 4.3-2.47 5Z"/></svg>