<svg xmlns="http://www.w3.org/2000/svg" width="16" height="16"><g fill="none" fill-rule="evenodd" stroke="#FB9D42"><path d="M1.5 8V3c0-.83.67-1.5 1.5-1.5h10c.83 0 1.5.67 1.5 1.5v10c0 .83-.67 1.5-1.5 1.5H9"/><path stroke-linecap="round" stroke-linejoin="round" d="m1.5 8 1.14-2.3q.09-.21.36-.24a1 1 0 0 1 .44.13c.18.12.23.53.28.64s.64 1.23.85 1.23.71-1.47.71-1.47.37-.49.72-.49.55.32.67.49.24 1.76.46 2.01 1.32.87 1.67.73c.34-.13.53-.4.63-.73.1-.34-.14-.75 0-1a1.1 1.1 0 0 1 1.02-.55c.56.03 2.05.56 2.05 1.05q0 .75-1.5.75c-.48 1.33.28 2.22-3 2.25l1 4"/><path stroke-linecap="round" stroke-linejoin="round" d="m4.5 14.5 1.5-4 1 4zM2.5 14.5l1.5-4-1.5-.5-1 1.54V14z"/></g></svg>