<svg xmlns="http://www.w3.org/2000/svg" width="16" height="16"><path fill="none" fill-rule="evenodd" stroke="#F9C509" stroke-linecap="round" stroke-linejoin="round" d="M7.18 1.55q-1.05.1-2 .47a5.3 5.3 0 0 0-3.05 2.84c-.45 1-.61 2.05-.63 3.14q-.01 1.72.35 3.4.29 1.54.86 2.98.04.13.18.12h4.88l-.02-.06-.03-.08-.27-.58q-.3-.62-.57-1.25A14 14 0 0 1 5.8 8.5a5 5 0 0 1 .12-1.84c.2-.69.6-1.17 1.29-1.38a3 3 0 0 1 1.89.02q.84.29 1.07 1.16.17.67.03 1.35-.09.53-.46.92c-.45.45-1 .56-1.61.52l-.33-.03-.15-.02v.13q.05.15.08.32.08.37.2.76.22.72.52 1.43a9 9 0 0 0 4.05-1.3l.06-.04a4 4 0 0 0 1.39-1.48c.53-1.02.63-2.1.47-3.22a4.5 4.5 0 0 0-1.54-2.88 5.4 5.4 0 0 0-2.06-1.1c-1.2-.34-2.41-.39-3.65-.28"/></svg>