<svg xmlns="http://www.w3.org/2000/svg" width="16" height="16"><g fill="none" fill-rule="evenodd"><path stroke="#42A0FF" stroke-linecap="round" stroke-linejoin="round" d="M5.5 3.25q1-.75 2.5-.75t2.5.75M10 3q.5-.5 1.5-.5c1 0 3 1.5 3 4s-1.25 4-2 4q-.75 0-1.75-1.25 1-1.25.75-3.75M6 3q-.5-.5-1.5-.5c-1 0-3 1.5-3 4q.02 1.15.3 2M3.75 10Q3.5 9.5 3 9.5c-.5 0-.5.5-.5 1.25 0 .3.23.77.62 1.25M5 13.33q.47.16 1 .17c2 0 4-1.5 4.5-5m-4 2q-.25 1-.75 1t-.5-.25"/><circle cx="6" cy="7" r="1.5" stroke="#575758"/><path stroke="#757981" stroke-linecap="round" d="M5.1 9.33 3.5 13.5m2.5-4a2.5 2.5 0 1 0 0-5 2.5 2.5 0 0 0 0 5Z"/></g></svg>