<svg xmlns="http://www.w3.org/2000/svg" width="16" height="16"><g fill="none" fill-rule="evenodd" stroke="#FB9D42"><path stroke-linecap="round" stroke-linejoin="round" d="M4.5 13.5q-.5.5-.5 1t.5 1q.25-1 1-1t1 1Q7 15 7 14h2q0 1 .5 1.5.25-1 1-1t1 1q.5-.5.5-1t-.5-1l1-1 1.25 1.25c0-2.75 1-2.75 1-5.75a7 7 0 0 0-2-5.25A3.6 3.6 0 0 1 13 .5q-1.75 0-2.5 1.25A3.1 3.1 0 0 0 8 .5Q6.5.5 5.5 1.75 4.75.5 3 .5q.75 1.25.25 2.25a7 7 0 0 0-2 5.25c0 3 1 3 1 5.75L3.5 12.5zm6-5a2 2 0 1 0 0-4 2 2 0 0 0 0 4m-5 0a2 2 0 1 0 0-4 2 2 0 0 0 0 4M7 8l1 2.5L9 8"/><path d="M10 6.5h1m-6 0h1"/></g></svg>