<svg xmlns="http://www.w3.org/2000/svg" width="16" height="16"><path fill="none" fill-rule="evenodd" stroke="#757981" stroke-linecap="round" stroke-linejoin="round" d="M8 1.5c-.87 0-1.17 1.32-2.03 1.63s-2.17-.68-2.84 0c-.68.67.3 1.98 0 2.84S1.5 7.13 1.5 8s1.32 1.17 1.63 2.03-.68 2.17 0 2.85c.67.67 1.98-.3 2.84 0S7.13 14.5 8 14.5s1.17-1.32 2.03-1.62 2.17.67 2.85 0c.67-.68-.3-2 0-2.85S14.5 8.87 14.5 8s-1.32-1.17-1.62-2.03.67-2.17 0-2.84c-.68-.68-2 .3-2.85 0S8.87 1.5 8 1.5m0 9a2.5 2.5 0 1 0 0-5 2.5 2.5 0 0 0 0 5"/></svg>