<svg xmlns="http://www.w3.org/2000/svg" width="16" height="16"><g fill="none" fill-rule="evenodd" stroke="#EE8FF0"><path stroke-linecap="round" stroke-linejoin="round" d="M3.5 4.5q1-.75 1.5-1c.5-.25 5.5-.25 6 0q.5.25 1.5 1m-9 0q-2.74.5-3 1C.25 6 .5 8.5 1 9q.5.5 1.5 0L4 5.5zm9 0q2.75.5 3 1c.25.5 0 3-.5 3.5q-.5.5-1.5 0L12 5.5zM2.5 9q-.5 2.5 0 3T5 13m8.5-4q.5 2.5 0 3T11 13M9 9.5c-.75-.5-1.25-.5-2 0q-.75.5-2 3.5-.75.75-.25 1.25C5.25 14.75 7 14 8 14s2.75.75 3.25.25q.5-.5-.25-1.25-1.25-3-2-3.5m-2.25.25Q7 11 8 11t1.25-1.25"/><path d="M10.5 8V7m-5 1V7"/></g></svg>