<svg xmlns="http://www.w3.org/2000/svg" width="16" height="16"><g fill="none" fill-rule="evenodd" stroke-linecap="round" stroke-linejoin="round"><path stroke="#66B2FF" d="M11.5 7.88c1.23-.44 2-1.06 2-1.75 0-1.34-2.91-2.42-6.5-2.42S.5 4.79.5 6.13 3.41 8.56 7 8.56q1.05 0 2-.12m1.37-.94q-.44-1.25-1.22-2.58C7.35 1.88 4.94-.04 3.75.63s-.7 3.68 1.1 6.72a14 14 0 0 0 2.48 3.15M4.85 4.92c-1.8 3.04-2.29 6.04-1.1 6.71s3.6-1.25 5.4-4.28 2.29-6.05 1.1-6.72-3.6 1.25-5.4 4.3M7 6.5a.5.5 0 1 0 0-1 .5.5 0 0 0 0 1"/><path stroke="#575758" d="M11.5 13.5a1 1 0 1 0 0-2 1 1 0 0 0 0 2m1.75-4 1.75 3-1.75 3h-3.5L8 12.5l1.75-3z"/></g></svg>