<svg xmlns="http://www.w3.org/2000/svg" width="16" height="16"><g fill="none" fill-rule="evenodd" stroke-linecap="round" stroke-linejoin="round"><path stroke="#757981" d="M11.28 11.04c-.2-.3-.33-.53-.25-.85q.09-.3.31-.52C12.62 8.41 13.76 7.32 14.8 6q.12-.19.17-.41.04-.18.03-.38 0-.18-.05-.35a7 7 0 0 0-1.4-2.18q-.2-.16-.44-.27a1 1 0 0 0-.36-.09q-.25 0-.48.05c-.17.05-.29.13-.46.23"/><path stroke="#26A69A" d="m2.63 5.4 6.41-3.6c.91-.52 2.06-.2 2.59.69A1.83 1.83 0 0 1 10.95 5L4.54 8.62c-.9.51-2.06.2-2.59-.7a1.83 1.83 0 0 1 .68-2.52"/><path stroke="#757981" d="m12.12 14.75-1.34-2.26a.7.7 0 0 1-.08-.56.7.7 0 0 1 .35-.44l.77-.43a.77.77 0 0 1 1.02.27l1.34 2.26"/></g></svg>