<svg xmlns="http://www.w3.org/2000/svg" width="16" height="16"><g fill="none" fill-rule="evenodd" stroke="#0097A7" stroke-linecap="round" stroke-linejoin="round"><path d="M8 2.5q-3 0-3.75 3.33 1.13-1.65 2.62-1.25c.58.16.98.62 1.43 1.13.74.83 1.6 1.79 3.45 1.79q3 0 3.75-3.33-1.13 1.65-2.63 1.25c-.57-.16-.97-.62-1.42-1.13C10.7 3.46 9.85 2.5 8 2.5M4.25 8.5q-3 0-3.75 3.33 1.13-1.65 2.63-1.25c.57.16.97.62 1.42 1.13.74.83 1.6 1.79 3.45 1.79q3 0 3.75-3.33-1.13 1.65-2.62 1.25c-.58-.16-.98-.62-1.43-1.13-.74-.83-1.6-1.79-3.45-1.79"/></g></svg>