<svg xmlns="http://www.w3.org/2000/svg" width="16" height="16"><g fill="none" fill-rule="evenodd"><path stroke="#757981" stroke-linecap="square" stroke-linejoin="round" d="m2 8.5.5 2 1.5 1 3-.5 1-1.5L9 11l3 .5 1.5-1 .5-2"/><path stroke="#F95148" stroke-linejoin="round" d="M6 2.5h4M8 2.5V6"/><path stroke="#757981" d="M5 9.5h1M10 9.5h1"/><path stroke="#757981" stroke-linecap="square" d="M1.5 8.5q1.5 7 6.5 7t6.5-7"/><path stroke="#F9C509" stroke-linecap="square" stroke-linejoin="round" d="M2 4.5q2-4 6-4t6 4l1.5 1V8q-3-.5-7.5-.5T.5 8V5.5z"/><path stroke="#F95148" stroke-linecap="round" stroke-linejoin="round" d="M1.5 13.5 3 14l3.5-1.5h3L13 14l1.5-.5"/></g></svg>