<svg xmlns="http://www.w3.org/2000/svg" width="16" height="16"><g fill="none" fill-rule="evenodd" stroke="#42A0FF" stroke-linecap="round"><path stroke-linejoin="round" d="M1.63 7.61Q1.5 11.28 4 12a5.5 5.5 0 0 1 3.5 2.5"/><path stroke-linejoin="round" d="M3.5 3.5q1.78 1.14 1.78 2.32c0 .79-1.08 2.7-.72 4.18.45 1.82 2.94 2 2.94 4.5"/><path stroke-linejoin="round" d="M7.5 7.5q-.7.12-1.47.5c-.76.39-1.47 1.54-1.47 2"/><path d="M7.5 1.5q2.1 3.03 2.1 5.53c0 1.17-.29 2.3-.88 3.27-.57.93-1.22 1.16-1.22 4.2"/><path d="M12.5 2.5c-1 0-1.51.5-2.01 1q-.51.5-.99 2"/><path stroke-linejoin="round" d="M13.5 6.5q.35 2.2-1 3.5c-.9.88-1.63.45-3 1.5q-.72.55-2 3M12 10.5h2.5"/></g></svg>