<svg xmlns="http://www.w3.org/2000/svg" width="16" height="16"><g fill="none" fill-rule="evenodd"><path stroke="#575758" d="M15 11.5c.27 0 .5.22.5.5v3a.5.5 0 0 1-.5.5h-5a.5.5 0 0 1-.5-.5v-3c0-.28.22-.5.5-.5zm-4 0V10a1.5 1.5 0 0 1 3 0v1.5"/><path stroke="#A761FF" stroke-linecap="round" stroke-linejoin="round" d="M7.5 13.18q-.81.26-1.7.32c-1.34 0-2.3.09-2.3-.57.03-.43.23-.84.56-1.13h-.58s-.98 1.7-2.3 1.7c-1.33 0 0-1.13 0-1.13-1.16 0-.75-2.19.57-2.83a2.6 2.6 0 0 1-.19-2.42 2.7 2.7 0 0 1 1.92-1.53c-.67-.66-1.15-2.05-.57-2.26.51-.22.93-.63 1.15-1.14.55-.4 1.25-.54 1.92-.39q.36-.74.96-1.3.33.6.38 1.3l.77-.17S9.24 3.89 7.32 7a3.6 3.6 0 0 1 1.46 2.5"/></g></svg>